<svg version="1.1" id="Icon_Set" xmlns="http://www.w3.org/2000/svg" x="0" y="0" viewBox="0 0 64 64" style="enable-background:new 0 0 64 64" xml:space="preserve"><style>.st1{fill:#263238}.st5{fill:#fff}</style><path style="fill:#ffd740" d="M10 11.5h32v16H10z"/><path class="st1" d="M42 28H10a.5.5 0 0 1-.5-.5v-16a.5.5 0 0 1 .5-.5h32a.5.5 0 0 1 .5.5v16a.5.5 0 0 1-.5.5zm-31.5-1h31V12h-31v15z"/><path class="st1" d="M44 59H8c-1.654 0-3-1.346-3-3V9c0-1.654 1.346-3 3-3h36c1.654 0 3 1.346 3 3v47c0 1.654-1.346 3-3 3zM8 7c-1.103 0-2 .897-2 2v47c0 1.103.897 2 2 2h36c1.103 0 2-.897 2-2V9c0-1.103-.897-2-2-2H8z"/><path class="st1" d="M49 64H12c-1.654 0-3-1.346-3-3v-.5a.5.5 0 0 1 1 0v.5c0 1.103.897 2 2 2h37c1.103 0 2-.897 2-2V14c0-1.103-.897-2-2-2h-.5a.5.5 0 0 1 0-1h.5c1.654 0 3 1.346 3 3v47c0 1.654-1.346 3-3 3zM53 3h-4a.5.5 0 0 1 0-1h4a.5.5 0 0 1 0 1z"/><path class="st1" d="M51 5a.5.5 0 0 1-.5-.5v-4a.5.5 0 0 1 1 0v4a.5.5 0 0 1-.5.5zM58.5 8.5h-4a.5.5 0 0 1 0-1h4a.5.5 0 0 1 0 1z"/><path class="st1" d="M56.5 10.5a.5.5 0 0 1-.5-.5V6a.5.5 0 0 1 1 0v4a.5.5 0 0 1-.5.5zM15 24.5a.5.5 0 0 1-.394-.806l7-9a.5.5 0 0 1 .378-.193.467.467 0 0 1 .39.168l7.601 8.551 6.631-8.525a.5.5 0 1 1 .789.613l-7 9a.5.5 0 0 1-.768.025l-7.601-8.551-6.631 8.525A.5.5 0 0 1 15 24.5z"/><circle class="st5" cx="15" cy="24" r="1.5"/><path class="st1" d="M15 26c-1.103 0-2-.897-2-2s.897-2 2-2 2 .897 2 2-.897 2-2 2zm0-3a1.001 1.001 0 0 0 0 2 1.001 1.001 0 0 0 0-2z"/><circle class="st5" cx="30" cy="24" r="1.5"/><path class="st1" d="M30 26c-1.103 0-2-.897-2-2s.897-2 2-2 2 .897 2 2-.897 2-2 2zm0-3a1.001 1.001 0 0 0 0 2 1.001 1.001 0 0 0 0-2z"/><circle class="st5" cx="22" cy="15" r="1.5"/><path class="st1" d="M22 17c-1.103 0-2-.897-2-2s.897-2 2-2 2 .897 2 2-.897 2-2 2zm0-3a1.001 1.001 0 0 0 0 2 1.001 1.001 0 0 0 0-2z"/><circle class="st5" cx="37" cy="15" r="1.5"/><path class="st1" d="M37 17c-1.103 0-2-.897-2-2s.897-2 2-2 2 .897 2 2-.897 2-2 2zm0-3a1.001 1.001 0 0 0 0 2 1.001 1.001 0 0 0 0-2zM36 54c-3.584 0-6.5-2.916-6.5-6.5S32.416 41 36 41s6.5 2.916 6.5 6.5S39.584 54 36 54zm0-12c-3.033 0-5.5 2.468-5.5 5.5S32.967 53 36 53s5.5-2.468 5.5-5.5S39.033 42 36 42zM38 33H14a.5.5 0 0 1 0-1h24a.5.5 0 0 1 0 1zM38 38H14a.5.5 0 0 1 0-1h24a.5.5 0 0 1 0 1z"/><path d="m40.242 51.742.002-.001A6 6 0 0 0 36 41.5v6l4.242 4.242z" style="fill:#40c4ff"/><path class="st1" d="M40.243 52.241a.5.5 0 0 1-.354-.146l-4.242-4.242a.496.496 0 0 1-.147-.353v-6a.5.5 0 0 1 .5-.5c3.584 0 6.5 2.916 6.5 6.5a6.458 6.458 0 0 1-1.902 4.595.5.5 0 0 1-.355.146zM36.5 47.293l3.727 3.727A5.46 5.46 0 0 0 41.5 47.5a5.508 5.508 0 0 0-5-5.478v5.271z"/><g><path d="M36 53.5a5.98 5.98 0 0 0 4.244-1.759L36 47.5h-6a6 6 0 0 0 6 6z" style="fill:#ff5252"/><path class="st1" d="M36 54a6.508 6.508 0 0 1-6.5-6.5.5.5 0 0 1 .5-.5h6c.132 0 .26.053.354.146l4.244 4.241a.5.5 0 0 1 0 .708A6.464 6.464 0 0 1 36 54zm-5.478-6c.253 2.8 2.613 5 5.478 5a5.46 5.46 0 0 0 3.521-1.274L35.793 48h-5.271z"/></g><g><path class="st1" d="M23 43h-8a.5.5 0 0 1 0-1h8a.5.5 0 0 1 0 1z"/></g><g><path class="st1" d="M23 48h-8a.5.5 0 0 1 0-1h8a.5.5 0 0 1 0 1z"/></g><g><path class="st1" d="M23 53h-8a.5.5 0 0 1 0-1h8a.5.5 0 0 1 0 1z"/></g><g><path class="st1" d="M56.5 59a.5.5 0 0 1-.5-.5v-2a.5.5 0 0 1 1 0v2a.5.5 0 0 1-.5.5z"/></g><g><path class="st1" d="M56.5 55a.5.5 0 0 1-.5-.5v-18a.5.5 0 0 1 1 0v18a.5.5 0 0 1-.5.5z"/></g></svg>