<svg xmlns="http://www.w3.org/2000/svg" viewBox="0 0 511.999 511.999" style="enable-background:new 0 0 511.999 511.999" xml:space="preserve"><path style="fill:#3eac92" d="M343.19 315.893h152.081a9.124 9.124 0 0 1 9.125 9.125V481.15a9.124 9.124 0 0 1-9.125 9.125H16.729a9.124 9.124 0 0 1-9.125-9.125V325.018a9.124 9.124 0 0 1 9.125-9.125H343.19z"/><path style="fill:#3eac92" d="M184.013 315.893H46.636V175.98a4.055 4.055 0 0 1 4.055-4.055h133.321v143.968h.001zM327.987 171.925h133.321a4.055 4.055 0 0 1 4.055 4.055v139.913H327.987V171.925z"/><path style="fill:#328777" d="M256 106.687a7.605 7.605 0 0 1-7.604-7.604V26.604a7.605 7.605 0 0 1 15.208 0v72.479c0 4.2-3.405 7.604-7.604 7.604z"/><path style="fill:#ffcd00" d="M323.932 68.404h-63.876a4.055 4.055 0 0 1-4.055-4.055V27.957a4.055 4.055 0 0 1 4.055-4.055h63.876a4.055 4.055 0 0 1 4.055 4.055v36.392a4.056 4.056 0 0 1-4.055 4.055z"/><path style="fill:#266659" d="M184.013 341.578H7.604v-17.573a8.112 8.112 0 0 1 8.111-8.111h168.298v25.684zM504.396 341.578H327.987v-25.684h168.298a8.112 8.112 0 0 1 8.111 8.111v17.573zM184.013 197.609H46.636v-20.615a5.07 5.07 0 0 1 5.069-5.069h132.307l.001 25.684zM465.364 197.609H327.987v-25.684h132.307a5.07 5.07 0 0 1 5.069 5.069v20.615h.001z"/><path style="fill:#d3fdf9" d="M101.558 283.111H80.262a4.055 4.055 0 0 1-4.055-4.055v-52.045a4.055 4.055 0 0 1 4.055-4.055h21.296a4.055 4.055 0 0 1 4.055 4.055v52.045a4.054 4.054 0 0 1-4.055 4.055zM154.448 283.111h-21.296a4.055 4.055 0 0 1-4.055-4.055v-52.045a4.055 4.055 0 0 1 4.055-4.055h21.296a4.055 4.055 0 0 1 4.055 4.055v52.045a4.056 4.056 0 0 1-4.055 4.055zM380.879 283.111h-21.296a4.055 4.055 0 0 1-4.055-4.055v-52.045a4.055 4.055 0 0 1 4.055-4.055h21.296a4.055 4.055 0 0 1 4.055 4.055v52.045a4.054 4.054 0 0 1-4.055 4.055zM433.768 283.111h-21.296a4.055 4.055 0 0 1-4.055-4.055v-52.045a4.055 4.055 0 0 1 4.055-4.055h21.296a4.055 4.055 0 0 1 4.055 4.055v52.045a4.054 4.054 0 0 1-4.055 4.055zM105.44 438.062H86.301a4.055 4.055 0 0 1-4.055-4.055v-52.045a4.055 4.055 0 0 1 4.055-4.055h19.139a4.055 4.055 0 0 1 4.055 4.055v52.045a4.056 4.056 0 0 1-4.055 4.055zM57.837 438.062H38.699a4.055 4.055 0 0 1-4.055-4.055v-52.045a4.055 4.055 0 0 1 4.055-4.055h19.139a4.055 4.055 0 0 1 4.055 4.055v52.045a4.057 4.057 0 0 1-4.056 4.055zM154.448 438.062h-19.139a4.055 4.055 0 0 1-4.055-4.055v-52.045a4.055 4.055 0 0 1 4.055-4.055h19.139a4.055 4.055 0 0 1 4.055 4.055v52.045a4.056 4.056 0 0 1-4.055 4.055zM423.03 438.062h-19.138a4.055 4.055 0 0 1-4.055-4.055v-52.045a4.055 4.055 0 0 1 4.055-4.055h19.139a4.055 4.055 0 0 1 4.055 4.055v52.045a4.057 4.057 0 0 1-4.056 4.055zM375.428 438.062h-19.139a4.055 4.055 0 0 1-4.055-4.055v-52.045a4.055 4.055 0 0 1 4.055-4.055h19.139a4.055 4.055 0 0 1 4.055 4.055v52.045a4.056 4.056 0 0 1-4.055 4.055zM472.039 438.062H452.9a4.055 4.055 0 0 1-4.055-4.055v-52.045a4.055 4.055 0 0 1 4.055-4.055h19.139a4.055 4.055 0 0 1 4.055 4.055v52.045a4.056 4.056 0 0 1-4.055 4.055z"/><path style="fill:#4bcdb2" d="M327.987 130.622v359.651H184.013V130.622c0-1.499.827-2.876 2.15-3.58l67.932-36.135a4.052 4.052 0 0 1 3.809 0l67.932 36.135a4.055 4.055 0 0 1 2.151 3.58z"/><circle style="fill:#d3fdf9" cx="256" cy="157.721" r="12.508"/><path style="fill:#266659" d="M294.868 341.578h-78.787a4.055 4.055 0 0 1-4.055-4.055V319.95a4.055 4.055 0 0 1 4.055-4.055h78.787a4.055 4.055 0 0 1 4.055 4.055v17.573a4.054 4.054 0 0 1-4.055 4.055z"/><path style="fill:#328777" d="M288.954 490.273h-68.077v-78.329c0-18.799 15.239-34.038 34.038-34.038 18.799 0 34.038 15.239 34.038 34.038v78.329h.001zM277.294 283.111h-44.61a4.055 4.055 0 0 1-4.055-4.055v-52.045a4.055 4.055 0 0 1 4.055-4.055h44.61a4.055 4.055 0 0 1 4.055 4.055v52.045a4.054 4.054 0 0 1-4.055 4.055z"/><path style="fill:#266659" d="M277.633 222.956h-22.305v60.155h22.305a4.055 4.055 0 0 0 4.055-4.055v-52.045a4.056 4.056 0 0 0-4.055-4.055zM288.88 411.944c0-18.774-15.2-33.997-33.964-34.036v112.366h33.964v-78.33z"/><path style="fill:#8dfcf3" d="M184.013 176.113h15.865c2.788 0 5.069-2.281 5.069-5.069v-12.793c0-2.788-2.281-5.069-5.069-5.069h-15.865v22.931z"/><path style="fill:#d3fdf9" d="M184.013 222.956h15.865c2.788 0 5.069-2.281 5.069-5.069v-12.793c0-2.788-2.281-5.069-5.069-5.069h-15.865v22.931zM184.013 269.798h15.865c2.788 0 5.069-2.281 5.069-5.069v-12.793c0-2.788-2.281-5.069-5.069-5.069h-15.865v22.931zM184.013 316.641h15.865c2.788 0 5.069-2.281 5.069-5.069v-12.793c0-2.788-2.281-5.069-5.069-5.069h-15.865v22.931z"/><path style="fill:#8dfcf3" d="M184.013 222.956h15.865c2.788 0 5.069-2.281 5.069-5.069v-12.793c0-2.788-2.281-5.069-5.069-5.069h-15.865v22.931z"/><path style="fill:#d3fdf9" d="M184.013 269.798h15.865c2.788 0 5.069-2.281 5.069-5.069v-12.793c0-2.788-2.281-5.069-5.069-5.069h-15.865v22.931zM184.013 316.641h15.865c2.788 0 5.069-2.281 5.069-5.069v-12.793c0-2.788-2.281-5.069-5.069-5.069h-15.865v22.931zM184.013 363.482h15.865c2.788 0 5.069-2.281 5.069-5.069V345.62c0-2.788-2.281-5.069-5.069-5.069h-15.865v22.931z"/><path style="fill:#8dfcf3" d="M184.013 269.798h15.865c2.788 0 5.069-2.281 5.069-5.069v-12.793c0-2.788-2.281-5.069-5.069-5.069h-15.865v22.931z"/><path style="fill:#d3fdf9" d="M184.013 316.641h15.865c2.788 0 5.069-2.281 5.069-5.069v-12.793c0-2.788-2.281-5.069-5.069-5.069h-15.865v22.931zM184.013 363.482h15.865c2.788 0 5.069-2.281 5.069-5.069V345.62c0-2.788-2.281-5.069-5.069-5.069h-15.865v22.931zM184.013 410.324h15.865c2.788 0 5.069-2.281 5.069-5.069v-12.793c0-2.788-2.281-5.069-5.069-5.069h-15.865v22.931z"/><path style="fill:#8dfcf3" d="M184.013 316.641h15.865c2.788 0 5.069-2.281 5.069-5.069v-12.793c0-2.788-2.281-5.069-5.069-5.069h-15.865v22.931zM184.013 363.482h15.865c2.788 0 5.069-2.281 5.069-5.069V345.62c0-2.788-2.281-5.069-5.069-5.069h-15.865v22.931zM184.013 410.324h15.865c2.788 0 5.069-2.281 5.069-5.069v-12.793c0-2.788-2.281-5.069-5.069-5.069h-15.865v22.931zM184.013 457.167h15.865c2.788 0 5.069-2.281 5.069-5.069v-12.793c0-2.788-2.281-5.069-5.069-5.069h-15.865v22.931zM327.987 176.113h-15.865c-2.788 0-5.069-2.281-5.069-5.069v-12.793c0-2.788 2.281-5.069 5.069-5.069h15.865v22.931zM327.987 222.956h-15.865c-2.788 0-5.069-2.281-5.069-5.069v-12.793c0-2.788 2.281-5.069 5.069-5.069h15.865v22.931zM327.987 269.798h-15.865c-2.788 0-5.069-2.281-5.069-5.069v-12.793c0-2.788 2.281-5.069 5.069-5.069h15.865v22.931zM327.987 316.641h-15.865c-2.788 0-5.069-2.281-5.069-5.069v-12.793c0-2.788 2.281-5.069 5.069-5.069h15.865v22.931zM327.987 363.482h-15.865c-2.788 0-5.069-2.281-5.069-5.069V345.62c0-2.788 2.281-5.069 5.069-5.069h15.865v22.931zM327.987 410.324h-15.865c-2.788 0-5.069-2.281-5.069-5.069v-12.793c0-2.788 2.281-5.069 5.069-5.069h15.865v22.931zM327.987 457.167h-15.865c-2.788 0-5.069-2.281-5.069-5.069v-12.793c0-2.788 2.281-5.069 5.069-5.069h15.865v22.931z"/><g style="opacity:.36"><path style="fill:#1f544a" d="M327.98 171.921h20.584v143.97H327.98z"/></g><g style="opacity:.36"><path style="fill:#1f544a" d="M365.86 341.471h138.53v11.841H365.86z"/></g><g style="opacity:.36"><path style="fill:#1f544a" d="M7.604 341.471h176.41v11.841H7.604z"/></g><g style="opacity:.36"><path style="fill:#1f544a" d="M46.636 197.611h137.38v11.841H46.636z"/></g><g style="opacity:.36"><path style="fill:#1f544a" d="M348.58 197.611h116.79v11.841H348.58z"/></g><g style="opacity:.36"><path style="fill:#1f544a" d="M327.98 341.471h37.868v148.73H327.98z"/></g><path style="fill:#3eac92" d="M327.99 130.622a4.057 4.057 0 0 0-2.151-3.581l-67.932-36.135a4.052 4.052 0 0 0-3.809 0l-67.932 36.135a4.055 4.055 0 0 0-2.15 3.581v4.462h143.975v-4.462h-.001z"/><g><path style="fill:#50000f" d="M256 176.754c11.09 0 20.111-9.021 20.111-20.111S267.09 136.532 256 136.532s-20.111 9.021-20.111 20.111 9.021 20.111 20.111 20.111zm0-25.015c2.704 0 4.903 2.199 4.903 4.903s-2.199 4.903-4.903 4.903c-2.704 0-4.903-2.199-4.903-4.903s2.199-4.903 4.903-4.903z"/><path style="fill:#50000f" d="M504.396 307.202h-31.428V170.837a7.605 7.605 0 0 0-7.604-7.604H335.591v-36.134a7.606 7.606 0 0 0-4.033-6.714l-67.954-36.147V74.92h64.383a7.605 7.605 0 0 0 7.604-7.604V22.813a7.605 7.605 0 0 0-7.604-7.604H256a7.605 7.605 0 0 0-7.604 7.604v61.425l-67.954 36.147a7.604 7.604 0 0 0-4.033 6.714v36.134H46.637a7.605 7.605 0 0 0-7.604 7.604v136.364H7.604A7.605 7.605 0 0 0 0 314.805v166.702c0 8.427 6.856 15.282 15.282 15.282H496.717c8.427 0 15.282-6.856 15.282-15.282v-166.7a7.603 7.603 0 0 0-7.603-7.605zm-7.604 15.281v10.402H335.591v-10.476H496.717c.042 0 .075.033.075.074zM343.19 307.202h-7.599V204.125h122.168v103.076H343.19v.001zm114.569-128.761v10.476H335.591v-10.476h122.168zM320.383 59.712h-56.779v-7.043h20.047a7.605 7.605 0 0 0 7.604-7.604V30.417h29.128v29.295zm-56.779-22.251v-7.043h12.443v7.043h-12.443zM54.241 178.441h122.168v10.476H54.241v-10.476zm0 25.684h122.168v103.076H54.241V204.125zm-7.604 118.284h129.772v10.476H15.208v-10.402c0-.042.033-.074.074-.074h31.355zM15.208 481.508V348.094h161.201v133.488H15.282a.074.074 0 0 1-.074-.074zm232.177.074h-18.904v-70.725c0-11.961 7.986-22.085 18.904-25.336v96.061zm15.208 0v-96.019c10.842 3.298 18.756 13.387 18.756 25.294v70.725h-18.756zm33.964 0v-70.725c0-22.912-18.6-41.557-41.493-41.639-.025 0-.05-.004-.075-.004l-.024.001-.05-.001c-22.962 0-41.642 18.68-41.642 41.642v70.725h-21.656V131.666L256 97.419l64.383 34.247v349.915l-23.826.001zm200.161 0H335.591V348.094h161.201v133.414a.074.074 0 0 1-.074.074z"/><path style="fill:#50000f" d="M298.923 307.202h-86.898a7.605 7.605 0 0 0-7.604 7.604v25.684a7.605 7.605 0 0 0 7.604 7.604h86.898a7.605 7.605 0 0 0 7.604-7.604v-25.684c0-4.2-3.404-7.604-7.604-7.604zm-7.604 25.684h-71.69V322.41h71.69v10.476zM228.629 289.628h52.721a7.605 7.605 0 0 0 7.604-7.604v-60.155a7.605 7.605 0 0 0-7.604-7.604h-52.721a7.605 7.605 0 0 0-7.604 7.604v60.155c0 4.2 3.404 7.604 7.604 7.604zm45.117-15.208h-11.152v-44.948h11.152v44.948zm-37.513-44.948h11.152v44.948h-11.152v-44.948zM105.614 214.264H76.207a7.605 7.605 0 0 0-7.604 7.604v60.155a7.605 7.605 0 0 0 7.604 7.604h29.407a7.605 7.605 0 0 0 7.604-7.604v-60.155c0-4.2-3.405-7.604-7.604-7.604zm-7.604 15.208v14.87H83.811v-14.87H98.01zM83.811 274.42v-14.87H98.01v14.87H83.811zM158.502 214.264h-29.406a7.605 7.605 0 0 0-7.604 7.604v60.155a7.605 7.605 0 0 0 7.604 7.604h29.406a7.605 7.605 0 0 0 7.604-7.604v-60.155c0-4.2-3.404-7.604-7.604-7.604zm-7.604 60.156H136.7v-44.948h14.198v44.948zM384.935 214.264h-29.407a7.605 7.605 0 0 0-7.604 7.604v60.155a7.605 7.605 0 0 0 7.604 7.604h29.407a7.605 7.605 0 0 0 7.604-7.604v-60.155c0-4.2-3.405-7.604-7.604-7.604zm-7.604 60.156h-14.199v-44.948h14.199v44.948zM437.824 214.264h-29.407a7.605 7.605 0 0 0-7.604 7.604v60.155a7.605 7.605 0 0 0 7.604 7.604h29.407a7.605 7.605 0 0 0 7.604-7.604v-60.155c0-4.2-3.405-7.604-7.604-7.604zm-7.604 15.208v14.87h-14.199v-14.87h14.199zm-14.199 44.948v-14.87h14.199v14.87h-14.199zM109.495 369.214h-27.25a7.605 7.605 0 0 0-7.604 7.604v60.155a7.605 7.605 0 0 0 7.604 7.604h27.249a7.605 7.605 0 0 0 7.604-7.604v-60.155a7.603 7.603 0 0 0-7.603-7.604zm-7.604 60.156H89.849v-44.948h12.041l.001 44.948zM61.892 369.214H34.644a7.605 7.605 0 0 0-7.604 7.604v60.155a7.605 7.605 0 0 0 7.604 7.604h27.249a7.605 7.605 0 0 0 7.604-7.604v-60.155a7.606 7.606 0 0 0-7.605-7.604zm-7.604 15.208v22.138h-12.04v-22.138h12.04zm-12.04 44.948v-7.603h12.041v7.603H42.248zM158.502 369.214h-27.249a7.605 7.605 0 0 0-7.604 7.604v60.155a7.605 7.605 0 0 0 7.604 7.604h27.249a7.605 7.605 0 0 0 7.604-7.604v-60.155a7.604 7.604 0 0 0-7.604-7.604zm-7.604 15.208v4.902h-12.041v-4.902h12.041zm-12.041 44.948v-24.839h12.041v24.839h-12.041zM427.086 369.214h-27.25a7.605 7.605 0 0 0-7.604 7.604v60.155a7.605 7.605 0 0 0 7.604 7.604h27.25a7.605 7.605 0 0 0 7.604-7.604v-60.155a7.605 7.605 0 0 0-7.604-7.604zm-7.604 60.156H407.44v-44.948h12.042v44.948zM379.483 369.214h-27.25a7.605 7.605 0 0 0-7.604 7.604v60.155a7.605 7.605 0 0 0 7.604 7.604h27.25a7.605 7.605 0 0 0 7.604-7.604v-60.155a7.603 7.603 0 0 0-7.604-7.604zm-7.604 15.208v4.902h-12.042v-4.902h12.042zm-12.041 44.948v-24.839h12.042v24.839h-12.042zM476.093 369.214h-27.249a7.605 7.605 0 0 0-7.604 7.604v60.155a7.605 7.605 0 0 0 7.604 7.604h27.249a7.605 7.605 0 0 0 7.604-7.604v-60.155a7.603 7.603 0 0 0-7.604-7.604zm-7.604 15.208v22.138h-12.041v-22.138h12.041zm-12.04 44.948v-7.603h12.041v7.603h-12.041z"/></g></svg>