<svg xmlns="http://www.w3.org/2000/svg" viewBox="0 0 64 64"><path d="M24 16v6.27a1.995 1.995 0 0 0-1-.27h-2v-2c-2.85.14-4.89-3.9-5-4-3 4-9 4-9 4v2H5a1.995 1.995 0 0 0-1 .27V15a7.998 7.998 0 0 1 8-8h3a3.995 3.995 0 0 1 4 4 5.002 5.002 0 0 1 5 5z" style="fill:#343544"/><path d="M20 21h3a2 2 0 0 1 2 2v2a2 2 0 0 1-2 2h-3v-6z" style="fill:#eac2b9"/><path d="M3 21h3a2 2 0 0 1 2 2v2a2 2 0 0 1-2 2H3v-6z" transform="rotate(-180 5.5 24)" style="fill:#eac2b9"/><path d="M18 30.74V37l-4 3-4-3v-6.26a6.98 6.98 0 0 0 8 0z" style="fill:#eac2b9"/><path d="M40.84 30a2.012 2.012 0 0 0-1.43.59L29 41l-7-3-4-2-4 3-4-3-4 2-5 3v12h23v-6l6 2 12.42-15.73A2.021 2.021 0 0 0 40.84 30z" style="fill:#f25757"/><path d="M16 15c-3 4-9 4-9 4v7a7 7 0 0 0 14 0v-7c-2.854.135-4.895-3.902-5-4z" style="fill:#ffddd4"/><path style="fill:#d63434" d="m10 36 4 3-4 3-4-4 4-2zM18 36l-4 3 4 3 4-4-4-2z"/><path style="fill:#ffb125" d="M1 57h28v6H1z"/><path style="fill:#48acff" d="M29 6h34v28H29z"/><path d="M40.84 30a2.012 2.012 0 0 0-1.43.59l-5.162 5.162.07.058.052.04 3.817 2.782 4.233-5.362A2.021 2.021 0 0 0 40.84 30z" style="fill:#ffddd4"/><path d="M31.06 53H1v4h30.06c.52 0 .94-.298.94-.667v-2.666c0-.369-.42-.667-.94-.667z" style="fill:#fcd354"/><path style="fill:#337fef" d="M25 1h38v5H25z"/><path d="M63 33H46.52a1 1 0 0 0 0 2H63a1 1 0 0 0 0-2z" style="fill:#231e23"/><path d="M63 5H26V2h37a1 1 0 0 0 0-2H25a1 1 0 0 0-1 1v5a1 1 0 0 0 1 1h3v27a1 1 0 0 0 1 1h4.586l-4.814 4.814-6.347-2.72L19 35.383v-3.147A8.009 8.009 0 0 0 21.737 28H23a3.003 3.003 0 0 0 3-3v-2a2.982 2.982 0 0 0-1-2.22V16a6.01 6.01 0 0 0-5.087-5.93A5.008 5.008 0 0 0 15 6h-3a9.01 9.01 0 0 0-9 9v5.78A2.982 2.982 0 0 0 2 23v2a3.003 3.003 0 0 0 3 3h1.263A8.009 8.009 0 0 0 9 32.235v3.147l-3.447 1.724c-.011.005-.017.016-.027.022-.013.007-.028.007-.04.015l-5 3a1 1 0 1 0 1.029 1.714l4.33-2.598 3.448 3.448a1 1 0 0 0 1.307.093l3.4-2.55 3.4 2.55a1 1 0 0 0 1.307-.093l3.521-3.521 6.378 2.733a.998.998 0 0 0 1.101-.212l5.353-5.353 2.317 1.688-7.727 9.787-5.334-1.777a.95.95 0 0 0-.897.155A.978.978 0 0 0 23 47v5H6v-5a1 1 0 0 0-2 0v5H1a1 1 0 0 0 0 2h30v2H1a1 1 0 0 0 0 2h27v5a1 1 0 0 0 2 0v-5h2a1 1 0 0 0 1-1v-4a1 1 0 0 0-1-1h-7v-3.613l4.684 1.561A.986.986 0 0 0 30 50a1 1 0 0 0 .785-.38l12.42-15.732a3.018 3.018 0 0 0-4.503-4.004L35.586 33H30V7h33a1 1 0 0 0 0-2zM24 25a1 1 0 0 1-1 1h-1v-4h1a1 1 0 0 1 1 1zM5 15a7.008 7.008 0 0 1 7-7h3a3.003 3.003 0 0 1 3 3 1 1 0 0 0 1 1 4.004 4.004 0 0 1 4 4v4h-1v-1a.998.998 0 0 0-.31-.724.984.984 0 0 0-.737-.275c-.73.02-2.203-.355-3.988-3.344a1.54 1.54 0 0 0-.284-.39 1 1 0 0 0-1.481.133C12.544 17.941 7.054 18 6.999 18A1.002 1.002 0 0 0 6 19v1H5zm0 11a1 1 0 0 1-1-1v-2a1 1 0 0 1 1-1h1v4zm3 0v-6.057a13.395 13.395 0 0 0 7.873-3.29c1.5 2.15 2.95 2.998 4.127 3.255V26a6 6 0 0 1-12 0zm6 8a7.95 7.95 0 0 0 3-.589V35.5l-3 2.25-3-2.25v-2.089A7.95 7.95 0 0 0 14 34zm-3.906 6.68-2.406-2.406 2.207-1.103L12.334 39zm7.812 0L15.666 39l2.44-1.83 2.206 1.104zm22.21-9.38a1.046 1.046 0 0 1 1.636.274.998.998 0 0 1-.117 1.075l-3.017 3.822-2.126-1.549z" style="fill:#231e23"/><path d="M63 9H52a1 1 0 0 0 0 2h11a1 1 0 0 0 0-2zM63 13H52a1 1 0 0 0 0 2h11a1 1 0 0 0 0-2zM63 17H52a1 1 0 0 0 0 2h11a1 1 0 0 0 0-2zM63 21H34a1 1 0 0 0 0 2h29a1 1 0 0 0 0-2zM63 25H34a1 1 0 0 0 0 2h29a1 1 0 0 0 0-2zM63 29H46.5a1 1 0 0 0 0 2H63a1 1 0 0 0 0-2zM47.707 13.293a1 1 0 0 0-1.414 0L45 14.586l-1.293-1.293a1 1 0 0 0-1.414 1.414L43.586 16l-1.293 1.293a1 1 0 1 0 1.414 1.414L45 17.414l1.293 1.293a1 1 0 0 0 1.414-1.414L46.414 16l1.293-1.293a1 1 0 0 0 0-1.414z" style="fill:#231e23"/><path d="M49 10a1 1 0 0 0-1-1h-7a1 1 0 0 0-.894.553L37 15.763l-1.105-2.21A1 1 0 0 0 35 13h-2a1 1 0 0 0 0 2h1.382l1.724 3.447a1 1 0 0 0 1.788 0L41.618 11H48a1 1 0 0 0 1-1z" style="fill:#231e23"/></svg>